<svg xmlns="http://www.w3.org/2000/svg" viewBox="0 0 50.9 63.2"><defs><style>.cls-1{fill:#8c8985;}.cls-2{fill:#e8e4da;}</style></defs><title>Asset 1</title><g id="Layer_2" data-name="Layer 2"><g id="Layer_1-2" data-name="Layer 1"><path class="cls-1" d="M9.43,55.77a.73.73,0,0,1-.54.23c-.27,0-.27.08-.54.08S8.08,56,7.81,56s-.27.13-.54.13-.3-.2-.49,0-.11.24-.11.51,0,.29,0,.57.14.27.14.56-.14.27-.14.55.12.29.12.56-.13.28-.13.56.06.28.06.57.09.27.09.55-.18.27-.18.56,0,.27,0,.55v.56a.67.67,0,0,1-.17.53c-.15.14-.33.37-.55.37a1,1,0,0,1-.6-.33c-.15-.14-.12-.36-.12-.57s-.12-.29-.12-.56S5,61.36,5,61.07,5,60.8,5,60.52s.06-.27.06-.56,0-.28,0-.55,0-.29,0-.56,0-.28,0-.56A1.8,1.8,0,0,0,5,57.72c0-.27.12-.27.12-.55s-.09-.27-.09-.56.32-.44.09-.62-.4.17-.75.17S4.05,56,3.7,56s-.34.17-.69.17-.42-.21-.57-.36a.7.7,0,0,1-.21-.55.75.75,0,0,1,.2-.56A.82.82,0,0,1,3,54.52c.3,0,.26,0,.6,0,.18,0,.38,0,.59,0s.4-.13.58-.13c.35,0,.3,0,.59,0s.3.15.6.15.28-.06.58-.06.29.07.59.07.3-.11.58-.11.3.08.59.08.3-.17.58-.17a1.07,1.07,0,0,1,.65.3c.15.14.09.38.09.6A.61.61,0,0,1,9.43,55.77Z"/><path class="cls-1" d="M23.94,59.86c-.05.17,0,.37-.05.53a2.92,2.92,0,0,1-.61.87,3.38,3.38,0,0,1-.44.4c-.15.13-.19.38-.36.5a4.37,4.37,0,0,1-.58.22,3.94,3.94,0,0,1-.54.29,3.39,3.39,0,0,1-.59.17,5.58,5.58,0,0,1-.61.09,4.2,4.2,0,0,1-.62.08s-.06,0-.09,0c-.19,0-.39,0-.57,0s-.39-.07-.57-.1-.36-.13-.54-.19-.31-.2-.48-.27a3.2,3.2,0,0,1-.52-.18,2.57,2.57,0,0,1-.53-.25,3.88,3.88,0,0,1-.33-.44,2.28,2.28,0,0,1-.3-.44,4.85,4.85,0,0,1-.3-.54A3.27,3.27,0,0,1,15,59.42a3.83,3.83,0,0,1-.07-.58,3.87,3.87,0,0,1,0-.59,3.54,3.54,0,0,1,.07-.58c.06-.19.15-.37.23-.56s.3-.28.4-.45.17-.36.3-.52.23-.28.36-.41.26-.29.42-.37.41-.06.57-.14.29-.3.47-.36.4,0,.58,0,.36-.22.54-.25a5.32,5.32,0,0,1,.57,0c.21,0,.44,0,.66,0s.44,0,.65.06.36.26.57.33a4.82,4.82,0,0,1,.61.2c.18.1.39.16.57.28s.26.35.41.49.37.16.48.3.09.35.18.51a2.89,2.89,0,0,1,.27.44c.06.17.1.34.15.52s.1.32.12.51,0,.34,0,.51a4.91,4.91,0,0,1,0,.54C24.12,59.53,24,59.69,23.94,59.86Zm-1.67-1.64a2.23,2.23,0,0,0-.18-.57c-.09-.21-.12-.44-.25-.55a3.52,3.52,0,0,0-.56-.36,2.64,2.64,0,0,0-.6-.2c-.21-.07-.37-.28-.58-.31a5.52,5.52,0,0,0-.68.06,2.65,2.65,0,0,0-.63,0,2.91,2.91,0,0,0-.6.18,4.13,4.13,0,0,0-.52.33,1.83,1.83,0,0,0-.44.38,4.17,4.17,0,0,0-.4.47,2.17,2.17,0,0,0-.2.59,2,2,0,0,0,0,.6c0,.17-.15.35-.12.52a2.22,2.22,0,0,0,.24.49,2.23,2.23,0,0,0,.25.45,2.06,2.06,0,0,0,.38.45,2.7,2.7,0,0,0,.51.27,3.53,3.53,0,0,0,.52.22,3.83,3.83,0,0,0,.6,0c.18,0,.36,0,.57,0s.41.17.59.14.36-.17.52-.23a3.07,3.07,0,0,0,.47-.28,2.74,2.74,0,0,0,.43-.3c.14-.13.32-.2.44-.33a1.33,1.33,0,0,0,.19-.46,2.37,2.37,0,0,0,.23-.48c0-.17.06-.34.06-.53A2.82,2.82,0,0,0,22.27,58.22Z"/><path class="cls-1" d="M35.37,55.79c-.15.14-.29.31-.53.31s-.3-.11-.61-.11-.32,0-.62,0-.31.12-.61.12-.32-.09-.62-.09-.31,0-.61,0-.35-.1-.57.1,0,.22,0,.5-.15.27-.15.54,0,.29,0,.56-.18.33-.06.58.33,0,.65,0h1.12c.27,0,.27-.08.56-.08h.55c.29,0,.29.05.56.05s.36.21.51.35a.61.61,0,0,1,.22.49.68.68,0,0,1-.18.53.71.71,0,0,1-.55.15c-.27,0-.27.17-.56.17h-.55c-.29,0-.29,0-.57,0s-.27-.05-.56-.05h-.55c-.29,0-.39-.24-.57,0s-.11.32,0,.64a2.08,2.08,0,0,1,.13.63c0,.31-.1.31-.1.63s-.05.31-.05.62h.06c0,.22-.16.36-.33.5a.65.65,0,0,1-.51.23.82.82,0,0,1-.58-.17.78.78,0,0,1-.26-.56c0-.3-.06-.3-.06-.58s.15-.3.15-.6,0-.3,0-.6-.09-.28-.09-.58-.06-.3-.06-.6.16-.29.16-.58a1.76,1.76,0,0,0-.12-.59c0-.3.14-.3.14-.6s-.09-.3-.09-.58v-.6c0-.28-.11-.28-.11-.58s.2-.3.2-.59a.71.71,0,0,1,.16-.55.94.94,0,0,1,.57-.35c.29,0,.29.07.57.07s.29,0,.57,0H32c.27,0,.27.06.56.06s.28,0,.57,0,.28,0,.57,0h.57c.27,0,.27-.14.55-.14a.94.94,0,0,1,.6.3.75.75,0,0,1,.21.57A.67.67,0,0,1,35.37,55.79Z"/><path class="cls-1" d="M48.52,58.44c0,.2,0,.38,0,.58,0,0,.09,0,.09,0s-.1,0-.1.1,0,.38-.06.57a3.66,3.66,0,0,1,0,.58,2.4,2.4,0,0,1-.27.53,2.64,2.64,0,0,1-.19.56,2.27,2.27,0,0,1-.38.45c-.12.16-.12.43-.28.57s-.44.09-.63.2a4,4,0,0,1-.54.3,4.22,4.22,0,0,1-.62.1c-.19,0-.4.19-.61.19,0,0,0-.07,0-.07a3.33,3.33,0,0,1-.55,0A4.41,4.41,0,0,1,43.8,63a4.76,4.76,0,0,1-.53-.19c-.16-.07-.28-.22-.45-.31a3.58,3.58,0,0,1-.48-.24c-.13-.1-.37-.13-.49-.27s-.11-.39-.21-.54-.3-.27-.38-.45a3.63,3.63,0,0,1-.19-.52c0-.19-.14-.37-.17-.56s.06-.38.06-.57,0-.15,0-.23.16-.37.18-.61,0-.4,0-.61-.17-.43-.15-.63.09-.41.09-.61-.06-.44-.06-.62c0-.37,0-.61,0-.61,0-.23.21-.41.36-.55a1,1,0,0,1,.6-.26.87.87,0,0,1,.6.26.74.74,0,0,1,.19.6,4,4,0,0,0-.06.52c0,.16,0,.34-.06.53s.14.36.12.54,0,.36,0,.54,0,.36,0,.53-.12.36-.12.53,0,.38,0,.53-.08.11-.08.15a2.85,2.85,0,0,0,.12.54,2,2,0,0,0,.11.56c.07.17.25.28.37.41a2.35,2.35,0,0,0,.54.3,1.82,1.82,0,0,0,.54.27,4.5,4.5,0,0,0,.63,0c.21,0,.42.11.59.08a1.83,1.83,0,0,0,.54-.2,2,2,0,0,0,.43-.38c.12-.14.08-.4.15-.63S47,60,47,59.79a4.86,4.86,0,0,0-.08-.64S47,59.09,47,59a5.81,5.81,0,0,0-.09-.58,5.61,5.61,0,0,0,0-.58c0-.2,0-.38,0-.57s0-.4,0-.58,0-.42,0-.57a.85.85,0,0,0-.24-.57c0-.23.26-.37.41-.52a.63.63,0,0,1,.49-.27.82.82,0,0,1,.62.15.71.71,0,0,1,.22.55,1.28,1.28,0,0,1,.17.58,5.41,5.41,0,0,0,0,.59c0,.18-.12.38-.12.6s.21.37.22.57S48.52,58.24,48.52,58.44Z"/><path class="cls-2" d="M0,24.32C.18,18.08.3,11.84.56,5.6.7,2.21,1.68,1.33,5.43.91A178.63,178.63,0,0,1,31.29.14c5,.15,9.92.65,14.89,1a8.06,8.06,0,0,1,1.17.23c2.42.59,2.92.91,3,3.17.28,6,.5,11.91.53,17.87s-.18,12.16-.34,18.25c0,1.36-.26,2.72-.39,4.08a1.78,1.78,0,0,1-1.9,1.68c-3.68.24-7.36.63-11.05.64-9.7,0-19.4-.11-29.1-.23-1.73,0-3.45-.28-5.18-.45-1.26-.12-2.06-.65-2.12-1.9-.21-4.34-.48-8.68-.65-13-.09-2.37,0-4.75,0-7.13Z"/></g></g></svg>